<?xml version="1.0" standalone="no"?>
<!DOCTYPE svg PUBLIC "-//W3C//DTD SVG 20010904//EN"
 "http://www.w3.org/TR/2001/REC-SVG-20010904/DTD/svg10.dtd">
<svg version="1.0" xmlns="http://www.w3.org/2000/svg"
 width="500.000000pt" height="500.000000pt" viewBox="0 0 500.000000 500.000000"
 preserveAspectRatio="xMidYMid meet">
<metadata>
Created by potrace 1.16, written by Peter Selinger 2001-2019
</metadata>
<g transform="translate(0.000000,500.000000) scale(0.100000,-0.100000)"
fill="#000000" stroke="none">
<path d="M1019 3505 c-28 -71 -184 -474 -348 -895 -164 -421 -297 -767 -295
-769 2 -2 23 5 48 15 42 18 47 24 70 84 13 36 34 91 46 123 l21 57 253 0 252
0 85 34 84 35 -322 3 -321 3 162 422 c89 233 164 425 167 427 2 2 74 -187 158
-420 85 -234 157 -427 160 -429 5 -2 636 251 649 261 2 1 -99 267 -225 590
l-228 588 -183 1 -182 0 -51 -130z"/>
<path d="M2550 3604 c0 -31 1 -31 62 -38 81 -8 127 -33 152 -82 20 -36 21 -59
24 -346 2 -170 6 -308 10 -308 4 0 160 63 347 139 l340 139 6 159 c7 176 18
229 51 260 39 35 64 43 135 43 143 -1 235 -67 283 -203 12 -31 24 -51 32 -49
7 2 114 45 236 95 253 102 246 92 101 141 -213 71 -316 78 -1101 80 l-678 1 0
-31z"/>
<path d="M4365 3055 l-350 -143 -12 -76 c-32 -210 -98 -324 -215 -376 -49 -21
-253 -48 -282 -37 -14 5 -16 27 -16 140 l0 134 -347 -142 -348 -142 -5 -514
c-3 -354 -9 -522 -16 -539 -26 -55 -70 -78 -186 -95 -34 -5 -38 -9 -38 -35 l0
-29 595 0 595 0 0 29 c0 26 -4 30 -35 35 -19 3 -52 8 -72 11 -136 21 -145 64
-141 664 l3 415 100 -1 c124 -1 171 -21 215 -91 58 -92 89 -215 140 -558 44
-298 58 -341 136 -425 80 -85 222 -130 413 -130 195 0 333 35 443 112 47 33
58 46 58 69 0 38 -11 42 -56 19 -46 -24 -73 -25 -120 -5 -53 22 -78 89 -134
360 -57 276 -69 316 -121 394 -91 137 -270 222 -531 254 -96 11 -132 27 -63
27 58 0 255 46 341 79 201 78 337 217 397 406 17 55 21 92 20 175 -1 58 -5
117 -10 132 l-8 26 -350 -143z"/>
<path d="M1705 1969 c-176 -72 -324 -134 -328 -139 -5 -4 18 -84 52 -176 77
-215 87 -260 67 -307 -17 -41 -54 -64 -117 -72 -112 -15 -109 -14 -109 -45 l0
-28 600 -1 600 0 0 29 c0 24 -7 32 -46 50 -85 42 -110 89 -269 500 -65 168
-121 308 -124 312 -3 4 -150 -52 -326 -123z"/>
<path d="M245 1372 c-233 -96 -244 -102 -245 -138 l0 -31 350 -2 350 -1 0 30
c0 27 -3 29 -47 35 -132 18 -203 54 -235 120 -12 25 -24 45 -27 45 -4 -1 -69
-27 -146 -58z"/>
</g>
</svg>
